<svg width="60" height="60" viewBox="0 0 60 60" fill="none" xmlns="http://www.w3.org/2000/svg">
<path d="M29.9695 50.8522C41.8268 50.8522 51.4391 41.3496 51.4391 29.6275C51.4391 17.9055 41.8268 8.40283 29.9695 8.40283C18.1122 8.40283 8.5 17.9055 8.5 29.6275C8.5 41.3496 18.1122 50.8522 29.9695 50.8522Z" fill="white"/>
<path d="M24.6711 26.4632H20.2601V30.9686H17.9668V19.9414H25.2274V21.7841H20.2601V24.6301H24.6711V26.4632Z" fill="#4F6471"/>
<path d="M31.2094 30.1292C30.6629 30.7852 29.9115 31.1132 28.9454 31.1132C28.0573 31.1132 27.3742 30.8624 26.9155 30.3607C26.4471 29.859 26.2129 29.1162 26.2031 28.1418V22.7681H28.4086V28.0646C28.4086 28.9232 28.799 29.3477 29.5895 29.3477C30.3409 29.3477 30.8581 29.0872 31.1411 28.5759V22.7681H33.3661V30.9589H31.2875L31.2094 30.1292Z" fill="#4F6471"/>
<path d="M41.8762 26.1834H37.4652V29.1356H42.6472V30.9589H35.1719V19.9414H42.6374V21.7841H37.475V24.4082H41.8762V26.1834Z" fill="#4F6471"/>
<path d="M24.3294 43.2219H23.3633V42.9219H24.3294V43.2219Z" fill="#E6235C"/>
<path d="M27.5494 44.2825H25.6562V44.022L26.6614 42.9221C26.8078 42.7581 26.9151 42.6231 26.9639 42.5169C27.0127 42.4108 27.0517 42.3047 27.0517 42.1986C27.0517 42.0539 27.0029 41.9284 26.9151 41.832C26.8273 41.7355 26.7004 41.6873 26.554 41.6873C26.3686 41.6873 26.232 41.7355 26.1246 41.8416C26.0173 41.9477 25.9685 42.0828 25.9685 42.2661H25.5977C25.5977 42.0056 25.6855 41.7934 25.8514 41.6294C26.027 41.4654 26.2515 41.3882 26.5443 41.3882C26.8175 41.3882 27.0225 41.4557 27.1786 41.6004C27.3347 41.7451 27.4128 41.9284 27.4128 42.16C27.4128 42.4398 27.2274 42.7774 26.8663 43.1633L26.0954 43.993H27.5494V44.2825Z" fill="#E6235C"/>
<path d="M29.7546 43.0669C29.7546 43.4914 29.6765 43.8097 29.5301 44.0123C29.3838 44.2149 29.1495 44.321 28.8373 44.321C28.525 44.321 28.3005 44.2246 28.1541 44.022C28.0078 43.8194 27.9297 43.5203 27.9199 43.1151V42.6327C27.9199 42.2082 27.998 41.8995 28.1444 41.6969C28.2908 41.4943 28.525 41.3882 28.8373 41.3882C29.1495 41.3882 29.374 41.4847 29.5204 41.6873C29.6668 41.8802 29.7448 42.1889 29.7448 42.6038V43.0669H29.7546ZM29.3935 42.5652C29.3935 42.2565 29.3545 42.0346 29.2666 41.8899C29.1788 41.7451 29.0422 41.6776 28.847 41.6776C28.6616 41.6776 28.525 41.7451 28.4371 41.8899C28.3493 42.0346 28.3103 42.2468 28.3005 42.5362V43.1151C28.3005 43.4238 28.3493 43.6554 28.4371 43.8001C28.525 43.9448 28.6616 44.022 28.847 44.022C29.0324 44.022 29.1593 43.9544 29.2471 43.8097C29.335 43.665 29.3838 43.4528 29.3838 43.1537V42.5652H29.3935Z" fill="#E6235C"/>
<path d="M32.1276 44.2825H30.2343V44.022L31.2395 42.9221C31.3859 42.7581 31.4932 42.6231 31.542 42.5169C31.5908 42.4108 31.6299 42.3047 31.6299 42.1986C31.6299 42.0539 31.5811 41.9284 31.4932 41.832C31.4054 41.7355 31.2785 41.6873 31.1322 41.6873C30.9467 41.6873 30.8101 41.7355 30.7028 41.8416C30.5954 41.9477 30.5466 42.0828 30.5466 42.2661H30.1758C30.1758 42.0056 30.2636 41.7934 30.4295 41.6294C30.6052 41.4654 30.8296 41.3882 31.1224 41.3882C31.3956 41.3882 31.6006 41.4557 31.7567 41.6004C31.9129 41.7451 31.9909 41.9284 31.9909 42.16C31.9909 42.4398 31.8055 42.7774 31.4444 43.1633L30.6735 43.993H32.1276V44.2825Z" fill="#E6235C"/>
<path d="M32.6835 42.8546L32.8299 41.4268H34.3133V41.7644H33.1422L33.0544 42.5459C33.2007 42.4591 33.3569 42.4205 33.5325 42.4205C33.796 42.4205 34.001 42.5073 34.1571 42.6809C34.3133 42.8546 34.3913 43.0861 34.3913 43.3756C34.3913 43.6746 34.3132 43.9062 34.1473 44.0702C33.9814 44.2342 33.757 44.321 33.474 44.321C33.2203 44.321 33.0056 44.2535 32.8494 44.1088C32.6835 43.9641 32.5957 43.7711 32.5762 43.5299H32.9275C32.947 43.6939 33.0056 43.8194 33.1031 43.8965C33.2007 43.9737 33.3276 44.022 33.4837 44.022C33.6594 44.022 33.7863 43.9641 33.8839 43.8483C33.9814 43.7325 34.0302 43.5782 34.0302 43.3756C34.0302 43.1826 33.9814 43.0283 33.8741 42.9125C33.7668 42.7967 33.6301 42.7388 33.4545 42.7388C33.2983 42.7388 33.1715 42.7774 33.0739 42.845L32.9763 42.9221L32.6835 42.8546Z" fill="#E6235C"/>
<path d="M36.6068 43.2219H35.6406V42.9219H36.6068V43.2219Z" fill="#E6235C"/>
<path d="M29.7947 21.4662L26.6035 18.3115L28.1845 16.7486L29.7947 18.3501L33.2298 14.9541L34.8107 16.5074L29.7947 21.4662Z" fill="#E6235C"/>
<path d="M27.8624 33.3808C27.5013 33.3711 27.1403 33.4387 26.8085 33.5737C26.5255 33.6799 26.2717 33.8728 26.0863 34.114C25.9204 34.3455 25.8326 34.6157 25.8326 34.8955C25.8326 35.4647 26.1449 35.9085 26.7694 36.2461C27.0719 36.4005 27.3842 36.5259 27.7063 36.6224C28.0966 36.7478 28.3699 36.8636 28.526 36.9793C28.6822 37.0951 28.7602 37.2784 28.7505 37.4714C28.7602 37.6547 28.6724 37.8187 28.526 37.9248C28.3796 38.0309 28.1649 38.0888 27.8917 38.0888C27.1695 38.0888 26.8085 37.7897 26.8085 37.1916H25.6667C25.6569 37.5196 25.7545 37.8476 25.9399 38.1178C26.1351 38.3975 26.4181 38.6194 26.7304 38.7448C27.0915 38.8992 27.4916 38.9764 27.8819 38.9764C28.487 38.9764 28.9749 38.8413 29.336 38.5712C29.6873 38.3107 29.8923 37.8959 29.8727 37.4617C29.8825 37.0662 29.7264 36.6803 29.4336 36.4005C29.1408 36.1207 28.6724 35.8795 28.0283 35.6866C27.7453 35.6094 27.4818 35.5033 27.2378 35.3489C27.0622 35.2331 26.9646 35.0788 26.9646 34.9051C26.9646 34.7218 27.0427 34.5481 27.1988 34.4517C27.355 34.3359 27.5697 34.278 27.8429 34.278C28.1259 34.278 28.3504 34.3455 28.5163 34.4806C28.6822 34.6253 28.77 34.8376 28.7505 35.0595H29.8825C29.8825 34.7507 29.7947 34.442 29.6288 34.1815C29.4531 33.9211 29.1994 33.7088 28.9164 33.5834C28.5846 33.4483 28.2235 33.3711 27.8624 33.3808ZM20.9629 33.458V38.8896H23.1001C23.7247 38.8896 24.2028 38.7448 24.5444 38.4747C24.886 38.2046 25.0519 37.809 25.0519 37.2881C25.0616 37.0083 24.9738 36.7381 24.8079 36.5066C24.642 36.2944 24.4078 36.1496 24.1443 36.0821C24.3785 35.9953 24.5834 35.8409 24.7201 35.6383C24.8567 35.4261 24.9348 35.1849 24.925 34.934C24.925 34.442 24.7493 34.0754 24.4078 33.8246C24.0662 33.5737 23.5588 33.4483 22.8854 33.4483L20.9629 33.458ZM22.0949 34.3648H22.8854C23.1977 34.3648 23.4221 34.4227 23.5685 34.5288C23.7149 34.635 23.7832 34.8183 23.7832 35.0595C23.7832 35.5033 23.5002 35.7251 22.9244 35.7348H22.0852L22.0949 34.3648ZM22.0949 36.5259H23.1294C23.6466 36.5355 23.9101 36.7864 23.9101 37.2881C23.9198 37.4907 23.8418 37.6836 23.6856 37.809C23.5392 37.9344 23.3245 38.002 23.061 38.002H22.0852L22.0949 36.5259Z" fill="#267281"/>
<path d="M38.9494 34.0956V33.4492H34.8214V34.3561H37.5343L34.8116 38.2248V38.8808H38.9982V37.9836H36.2267L38.9494 34.0956ZM34.0212 35.7646H31.8449V34.3561H34.2944V33.4492H30.7129V38.8905H31.8449V36.6715H34.0212V35.7646Z" fill="#406080"/>
<path d="M29.9783 0.00976562C37.5414 0.00976562 37.5414 9.63806 29.9783 9.63806C41.1425 9.63806 50.1889 18.6007 50.1889 29.6375C50.1889 40.4042 41.5816 49.1739 30.8078 49.5984C30.72 49.5984 30.6322 49.5984 30.5443 49.608C30.5346 49.608 30.5248 49.608 30.515 49.608C30.515 49.608 30.5053 49.608 30.4955 49.608C30.476 49.608 30.4663 49.608 30.4467 49.608C30.4467 49.608 30.4467 49.608 30.437 49.608C30.2808 49.608 29.9198 49.6273 29.91 49.6273C22.6104 49.6852 22.4445 58.7829 29.4025 59.2653C29.7539 59.2845 29.9783 59.2845 29.9783 59.2845V59.2749C46.5391 59.2749 59.9576 46.0095 59.9576 29.6375C59.9576 13.2752 46.5391 0.00976562 29.9783 0.00976562Z" fill="#E6235C"/>
<path d="M29.4133 59.2656C22.4552 58.7928 22.6211 49.6855 29.9207 49.6276C29.9403 49.6276 29.9598 49.6276 29.9793 49.6276C18.8151 49.6276 9.77841 40.6843 9.77841 29.6475V29.6378C9.76865 22.1609 0.00976562 22.0645 0.00976562 29.551V29.6475C0.00976562 46.0194 13.4282 59.2849 29.989 59.2849C29.7841 59.2849 29.5987 59.2752 29.4133 59.2656Z" fill="#406080"/>
<path d="M29.9793 0C13.4185 0 0 13.2654 0 29.6374C0 22.2666 9.75888 22.3438 9.76864 29.7146C9.76864 18.6777 18.8249 9.65724 29.9793 9.65724C37.5424 9.65724 37.5424 0 29.9793 0Z" fill="#267281"/>
</svg>
